<svg width="22" height="22" viewBox="0 0 22 22" fill="none" xmlns="http://www.w3.org/2000/svg">
<path d="M18.744 6.77958L18.2199 6.25548C18.0552 6.09067 17.8357 6 17.6013 6C17.3668 6 17.1471 6.09067 16.9825 6.25548L9.61815 13.6196L5.01704 9.01841C4.85236 8.85385 4.63265 8.76306 4.39825 8.76306C4.16397 8.76306 3.94439 8.85385 3.77958 9.01841L3.25535 9.54237C3.09054 9.70745 3 9.92728 3 10.1614C3 10.3957 3.09054 10.6154 3.25535 10.7802L8.45028 15.9749C8.45718 15.9847 8.46446 15.9938 8.47292 16.0021L8.99714 16.5176C9.16183 16.6818 9.38154 16.7638 9.61776 16.7638H9.6205C9.85503 16.7638 10.0747 16.6818 10.2392 16.5176L10.7635 15.9975C10.772 15.9892 10.7791 15.9823 10.7834 15.9753L18.7439 8.01561C19.0854 7.67493 19.0854 7.12065 18.744 6.77958Z" fill="white"/>
</svg>
